<svg xmlns="http://www.w3.org/2000/svg" xmlns:xlink="http://www.w3.org/1999/xlink" version="1.1" x="0px" y="0px" viewBox="0 0 50 62.5" enable-background="new 0 0 50 50" xml:space="preserve"><g><path fill-rule="evenodd" clip-rule="evenodd" fill="#000000" d="M40.968,25.355c0-5.533,3.589-10.203,8.51-11.713   c-1.569-0.776-3.321-1.225-5.181-1.225c-5.328,0-9.837,3.578-11.373,8.516c-1.196-3.422-2.441-9.013-1.16-15.611   c0,0-17.075-0.124-31.241,19.204c0,0,9.748,17.737,31.241,20.151c0,0-3.671-10.49,0.813-17.742   c1.046,5.66,5.893,9.943,11.721,9.943c1.19,0,2.34-0.185,3.426-0.518C43.729,34.383,40.968,30.205,40.968,25.355z M9.215,25.453   c-1.252,0-2.267-1.107-2.267-2.475c0-1.366,1.015-2.475,2.267-2.475c1.253,0,2.268,1.108,2.268,2.475   C11.482,24.346,10.468,25.453,9.215,25.453z"/></g><text x="0" y="65" fill="#000000" font-size="5px" font-weight="bold" font-family="'Helvetica Neue', Helvetica, Arial-Unicode, Arial, Sans-serif">Created by Mister Pixel</text><text x="0" y="70" fill="#000000" font-size="5px" font-weight="bold" font-family="'Helvetica Neue', Helvetica, Arial-Unicode, Arial, Sans-serif">from the Noun Project</text></svg>