<?xml version="1.0" encoding="UTF-8" standalone="no"?>
<!-- Created with Inkscape (http://www.inkscape.org/) -->

<svg
   xmlns:dc="http://purl.org/dc/elements/1.1/"
   xmlns:cc="http://creativecommons.org/ns#"
   xmlns:rdf="http://www.w3.org/1999/02/22-rdf-syntax-ns#"
   xmlns:svg="http://www.w3.org/2000/svg"
   xmlns="http://www.w3.org/2000/svg"
   xmlns:sodipodi="http://sodipodi.sourceforge.net/DTD/sodipodi-0.dtd"
   xmlns:inkscape="http://www.inkscape.org/namespaces/inkscape"
   width="146.75555mm"
   height="146.75555mm"
   viewBox="0 0 520 519.99999"
   id="svg2"
   version="1.1"
   inkscape:version="0.91 r13725"
   sodipodi:docname="BigPomofishIcon.svg">
  <defs
     id="defs4" />
  <sodipodi:namedview
     id="base"
     pagecolor="#ffffff"
     bordercolor="#666666"
     borderopacity="1.0"
     inkscape:pageopacity="0.0"
     inkscape:pageshadow="2"
     inkscape:zoom="0.35"
     inkscape:cx="-32.142856"
     inkscape:cy="-12.362203"
     inkscape:document-units="px"
     inkscape:current-layer="layer1"
     showgrid="false"
     inkscape:window-width="1920"
     inkscape:window-height="1123"
     inkscape:window-x="-9"
     inkscape:window-y="-9"
     inkscape:window-maximized="1"
     fit-margin-top="0"
     fit-margin-left="0"
     fit-margin-right="0"
     fit-margin-bottom="0" />
  <metadata
     id="metadata7">
    <rdf:RDF>
      <cc:Work
         rdf:about="">
        <dc:format>image/svg+xml</dc:format>
        <dc:type
           rdf:resource="http://purl.org/dc/dcmitype/StillImage" />
        <dc:title></dc:title>
      </cc:Work>
    </rdf:RDF>
  </metadata>
  <g
     inkscape:label="Layer 1"
     inkscape:groupmode="layer"
     id="layer1"
     transform="translate(8.2519531e-7,-1.4843749e-6)">
    <g
       id="g3382"
       transform="translate(-125.71428,-143.79077)">
      <rect
         y="143.79077"
         x="125.71428"
         height="520"
         width="520"
         id="rect3378"
         style="fill:#aa0000" />
      <g
         style="fill:#ffffff"
         transform="matrix(9.2635477,0,0,9.2635477,154.12095,172.2068)"
         id="g3338">
        <path
           id="path3340"
           d="m 40.968,25.355 c 0,-5.533 3.589,-10.203 8.51,-11.713 -1.569,-0.776 -3.321,-1.225 -5.181,-1.225 -5.328,0 -9.837,3.578 -11.373,8.516 -1.196,-3.422 -2.441,-9.013 -1.16,-15.611 0,0 -17.075,-0.124 -31.241,19.204 0,0 9.748,17.737 31.241,20.151 0,0 -3.671,-10.49 0.813,-17.742 1.046,5.66 5.893,9.943 11.721,9.943 1.19,0 2.34,-0.185 3.426,-0.518 -3.995,-1.977 -6.756,-6.155 -6.756,-11.005 z M 9.215,25.453 c -1.252,0 -2.267,-1.107 -2.267,-2.475 0,-1.366 1.015,-2.475 2.267,-2.475 1.253,0 2.268,1.108 2.268,2.475 -0.001,1.368 -1.015,2.475 -2.268,2.475 z"
           inkscape:connector-curvature="0"
           style="clip-rule:evenodd;fill:#ffffff;fill-rule:evenodd" />
      </g>
    </g>
  </g>
</svg>
